<svg width="951" height="247" viewBox="0 0 951 247" fill="none" xmlns="http://www.w3.org/2000/svg">
<path d="M415.735 165H395.296L387.171 143.862H349.974L342.293 165H322.361L358.606 71.9434H378.475L415.735 165ZM381.141 128.184L368.318 93.6523L355.75 128.184H381.141ZM425.638 88.4473V71.9434H443.475V88.4473H425.638ZM425.638 165V97.5879H443.475V165H425.638ZM478.895 165H461.058V97.5879H477.625V107.173C480.46 102.645 482.999 99.6615 485.242 98.2227C487.527 96.7839 490.109 96.0645 492.986 96.0645C497.049 96.0645 500.963 97.1859 504.729 99.4287L499.207 114.98C496.202 113.034 493.41 112.061 490.828 112.061C488.331 112.061 486.215 112.759 484.48 114.155C482.745 115.509 481.37 117.985 480.354 121.582C479.381 125.179 478.895 132.712 478.895 144.18V165ZM533.548 165V87.6855H505.936V71.9434H579.886V87.6855H552.337V165H533.548ZM578.172 130.342C578.172 124.417 579.632 118.683 582.552 113.14C585.472 107.596 589.598 103.364 594.93 100.444C600.304 97.5244 606.292 96.0645 612.894 96.0645C623.092 96.0645 631.45 99.3864 637.967 106.03C644.484 112.632 647.742 120.99 647.742 131.104C647.742 141.302 644.441 149.766 637.84 156.494C631.281 163.18 623.007 166.523 613.021 166.523C606.842 166.523 600.939 165.127 595.311 162.334C589.725 159.541 585.472 155.457 582.552 150.083C579.632 144.666 578.172 138.086 578.172 130.342ZM596.453 131.294C596.453 137.98 598.04 143.101 601.214 146.655C604.388 150.21 608.302 151.987 612.957 151.987C617.612 151.987 621.505 150.21 624.637 146.655C627.811 143.101 629.397 137.938 629.397 131.167C629.397 124.565 627.811 119.487 624.637 115.933C621.505 112.378 617.612 110.601 612.957 110.601C608.302 110.601 604.388 112.378 601.214 115.933C598.04 119.487 596.453 124.608 596.453 131.294ZM723.597 165H707.029V155.098C704.279 158.949 701.02 161.826 697.254 163.73C693.53 165.592 689.764 166.523 685.955 166.523C678.211 166.523 671.567 163.413 666.023 157.192C660.522 150.929 657.771 142.212 657.771 131.04C657.771 119.614 660.459 110.939 665.833 105.015C671.207 99.0479 677.999 96.0645 686.209 96.0645C693.742 96.0645 700.258 99.196 705.76 105.459V71.9434H723.597V165ZM675.989 129.834C675.989 137.028 676.984 142.233 678.973 145.449C681.85 150.104 685.87 152.432 691.033 152.432C695.138 152.432 698.629 150.697 701.507 147.227C704.384 143.714 705.823 138.488 705.823 131.548C705.823 123.804 704.427 118.239 701.634 114.854C698.841 111.426 695.265 109.712 690.906 109.712C686.674 109.712 683.12 111.405 680.242 114.79C677.407 118.133 675.989 123.148 675.989 129.834ZM754.573 118.154L738.387 115.234C740.206 108.717 743.338 103.893 747.781 100.762C752.225 97.6302 758.826 96.0645 767.586 96.0645C775.542 96.0645 781.466 97.0166 785.359 98.9209C789.253 100.783 791.982 103.174 793.548 106.094C795.156 108.971 795.96 114.282 795.96 122.026L795.77 142.847C795.77 148.771 796.045 153.151 796.595 155.986C797.187 158.779 798.266 161.784 799.832 165H782.186C781.72 163.815 781.149 162.059 780.472 159.731C780.175 158.674 779.964 157.975 779.837 157.637C776.79 160.599 773.532 162.821 770.062 164.302C766.591 165.783 762.889 166.523 758.953 166.523C752.013 166.523 746.533 164.64 742.513 160.874C738.535 157.108 736.546 152.347 736.546 146.592C736.546 142.783 737.456 139.398 739.275 136.436C741.095 133.431 743.634 131.146 746.893 129.58C750.193 127.972 754.933 126.576 761.111 125.391C769.448 123.825 775.224 122.365 778.44 121.011V119.233C778.44 115.806 777.594 113.372 775.901 111.934C774.209 110.452 771.014 109.712 766.316 109.712C763.143 109.712 760.667 110.347 758.89 111.616C757.112 112.843 755.674 115.023 754.573 118.154ZM778.44 132.627C776.155 133.389 772.537 134.299 767.586 135.356C762.635 136.414 759.397 137.451 757.874 138.467C755.547 140.117 754.383 142.212 754.383 144.751C754.383 147.248 755.314 149.406 757.176 151.226C759.038 153.045 761.408 153.955 764.285 153.955C767.501 153.955 770.569 152.897 773.489 150.781C775.647 149.173 777.065 147.205 777.742 144.878C778.208 143.354 778.44 140.456 778.44 136.182V132.627ZM805.164 97.5879H824.144L840.267 145.449L856.009 97.5879H874.48L850.677 162.461L846.424 174.204C844.858 178.14 843.356 181.144 841.917 183.218C840.521 185.291 838.891 186.963 837.029 188.232C835.21 189.544 832.946 190.56 830.237 191.279C827.571 191.999 824.546 192.358 821.16 192.358C817.732 192.358 814.368 191.999 811.067 191.279L809.48 177.314C812.273 177.865 814.791 178.14 817.034 178.14C821.181 178.14 824.249 176.912 826.238 174.458C828.227 172.046 829.751 168.957 830.809 165.19L805.164 97.5879Z" fill="#CFDFE8"/>
<rect x="124" y="123" width="124" height="124" fill="#1F4E5F"/>
<rect y="123" width="124" height="124" fill="#AACFD0"/>
<rect x="124" width="124" height="123" fill="#A6E2E3"/>
<rect width="90" height="90" fill="#BCBCBC"/>
</svg>
